<svg version="1.1" xmlns="http://www.w3.org/2000/svg" xmlns:xlink="http://www.w3.org/1999/xlink">
    <!-- Generator: Sketch 63.1 (92452) - https://sketch.com -->
    <title>LOGO</title>
    <desc>Created with Sketch.</desc>
    <defs>
        <polygon id="path-1" points="0.25144 0.1008 15.02284 0.1008 15.02284 32.3148 0.25144 32.3148"></polygon>
    </defs>
    <g id="Page-1" stroke="none" stroke-width="1" fill="none" fill-rule="evenodd">
        <g id="HARSANYI" transform="translate(-83.000000, -30.000000)">
            <g id="LOGO" transform="translate(83.000000, 30.000000)">
                <g id="Group">
                    <polygon id="Fill-1" fill="#96694C" points="-5.90638649e-15 54.38678 4.7726 54.38678 4.7726 16.21018 -5.90638649e-15 16.21018"></polygon>
                    <polygon id="Fill-2" fill="#96694C" points="21.4886 54.38678 26.2619 54.38678 26.2619 16.21018 21.4886 16.21018"></polygon>
                    <g id="Group-5" transform="translate(10.500000, 0.599480)">
                        <mask id="mask-2" fill="white">
                            <use xlink:href="#path-1"></use>
                        </mask>
                        <g id="Clip-4"></g>
                        <path d="M0.25144,32.3148 L5.01774,32.3148 L5.01774,6.9048 C5.01774,3.2718 6.81114,0.8582 9.05814,0.8582 C10.28734,0.8582 10.85574,1.7584 10.85574,3.3208 C10.85574,5.4502 9.76654,6.2552 8.77254,6.4918 C9.24574,7.3913 10.38254,8.0066 11.61454,8.0066 C13.60324,8.0066 15.02284,6.5877 15.02284,4.4562 C15.02284,1.4266 12.32294,0.1001 9.24574,0.1001 C4.32264,0.1001 0.25144,3.3208 0.25144,9.7104 L0.25144,32.3148 Z" id="Fill-3" fill="#96694C" mask="url(#mask-2)"></path>
                    </g>
                    <path d="M15.51746,37.68674 L10.75116,37.68674 L10.75116,63.09534 C10.75116,66.72834 8.95776,69.14194 6.71006,69.14194 C5.48156,69.14194 4.91316,68.24174 4.91316,66.67864 C4.91316,64.54924 6.00236,63.74494 6.99636,63.50764 C6.52316,62.60954 5.38636,61.99284 4.15366,61.99284 C2.16566,61.99284 0.74606,63.41244 0.74606,65.54324 C0.74606,68.57354 3.44596,69.89934 6.52316,69.89934 C11.44626,69.89934 15.51746,66.67864 15.51746,60.28904 L15.51746,37.68674 Z" id="Fill-6" fill="#96694C"></path>
                    <polygon id="Fill-8" fill="#000000" points="57.69386 35.3003 53.84456 35.3003 53.84456 27.5387 44.42956 27.5387 44.42956 35.3003 40.58096 35.3003 40.58096 16.2155 44.42956 16.2155 44.42956 24.4216 53.84456 24.4216 53.84456 16.2155 57.69386 16.2155"></polygon>
                    <path d="M72.57495,23.18155 L72.32085,23.18155 L69.42635,29.41575 L69.20305,29.82945 L75.69275,29.82945 L75.46945,29.41575 L72.57495,23.18155 Z M72.12975,16.21515 L72.79825,16.21515 L82.62625,35.29995 L78.26875,35.29995 L77.02835,32.69175 L67.89965,32.69175 L66.69075,35.29995 L62.33255,35.29995 L72.12975,16.21515 Z" id="Fill-10" fill="#000000"></path>
                    <path d="M95.75839,19.58726 L91.11459,19.58726 L91.11459,26.23516 L95.85429,26.23516 C98.27139,26.23516 99.73509,25.15366 99.73509,22.92696 C99.73509,20.73176 98.23989,19.58726 95.75839,19.58726 L95.75839,19.58726 Z M87.26529,16.21536 L95.88579,16.21536 C100.72069,16.21536 103.71039,18.60096 103.71039,22.76736 C103.71039,25.59886 102.31109,27.53856 100.11659,28.58856 L100.11659,28.87486 L104.66519,34.91866 L104.66519,35.30016 L100.30699,35.30016 L96.07689,29.47966 L91.11459,29.47966 L91.11459,35.30016 L87.26529,35.30016 L87.26529,16.21536 Z" id="Fill-12" fill="#000000"></path>
                    <path d="M111.46737,30.33849 C111.46737,30.33849 113.98037,32.18299 117.09747,32.18299 C119.41937,32.18299 120.34197,31.26039 120.34197,30.05219 C120.34197,28.81109 119.51457,28.17549 116.20707,27.25289 C111.88037,26.04399 109.62217,24.51729 109.62217,21.46389 C109.62217,18.06049 112.16737,15.80159 117.06597,15.80159 C122.18647,15.80159 124.28577,17.77419 124.28577,17.77419 L122.21867,20.92279 C122.21867,20.92279 120.18237,19.33239 117.06597,19.33239 C114.96667,19.33239 113.94817,20.06389 113.94817,21.24059 C113.94817,22.38649 114.93447,22.89539 117.92417,23.72209 C122.60017,24.96249 124.73167,26.61659 124.73167,29.70219 C124.73167,33.04189 122.40907,35.71449 117.19267,35.71449 C111.94477,35.71449 109.36807,33.26449 109.36807,33.26449 L111.46737,30.33849 Z" id="Fill-14" fill="#000000"></path>
                    <path d="M138.27618,23.18155 L138.02208,23.18155 L135.12688,29.41575 L134.90428,29.82945 L141.39398,29.82945 L141.17068,29.41575 L138.27618,23.18155 Z M137.83098,16.21515 L138.49878,16.21515 L148.32748,35.29995 L143.96998,35.29995 L142.72888,32.69175 L133.60018,32.69175 L132.39198,35.29995 L128.03378,35.29995 L137.83098,16.21515 Z" id="Fill-16" fill="#000000"></path>
                    <polygon id="Fill-18" fill="#000000" points="170.52476 35.3003 169.60286 35.3003 156.81596 23.6586 156.81596 35.3003 152.96666 35.3003 152.96666 16.2155 153.92076 16.2155 166.70766 27.6024 166.70766 16.247 170.52476 16.247"></polygon>
                    <polygon id="Fill-20" fill="#000000" points="189.47768 16.21543 193.93108 16.21543 186.71058 28.01603 186.71058 35.30023 182.86128 35.30023 182.86128 27.98453 175.70448 16.21543 180.15788 16.21543 184.10168 22.86333 184.64278 24.07223 184.99278 24.07223 185.56468 22.86333"></polygon>
                    <polygon id="Fill-22" fill="#000000" points="199.0142 35.30058 202.8635 35.30058 202.8635 16.21578 199.0142 16.21578"></polygon>
                    <polygon id="Fill-24" fill="#000000" points="40.58075 40.07864 51.69605 40.07864 51.69605 42.60704 43.46685 42.60704 43.46685 46.08954 50.52705 46.08954 50.52705 48.45064 43.46685 48.45064 43.46685 54.39014 40.58075 54.39014"></polygon>
                    <path d="M67.4135,47.23418 C67.4135,44.51538 65.4815,42.53578 62.7858,42.53578 C60.1146,42.53578 58.2064,44.51538 58.2064,47.23418 C58.2064,49.95368 60.1146,51.93328 62.7858,51.93328 C65.4815,51.93328 67.4135,49.95368 67.4135,47.23418 M55.2251,47.23418 C55.2251,43.10768 58.1105,39.76798 62.7858,39.76798 C67.4849,39.76798 70.371,43.10768 70.371,47.23418 C70.371,51.36068 67.4849,54.70038 62.7858,54.70038 C58.1105,54.70038 55.2251,51.36068 55.2251,47.23418" id="Fill-25" fill="#000000"></path>
                    <path d="M75.45118,48.28383 L75.45118,40.07843 L78.33798,40.07843 L78.33798,48.28383 C78.33798,50.26413 79.50628,51.93363 81.86808,51.93363 C84.25298,51.93363 85.35058,50.28723 85.35058,48.28383 L85.35058,40.07843 L88.23598,40.07843 L88.23598,48.28383 C88.23598,51.98123 85.87488,54.70003 81.86808,54.70003 C77.90818,54.70003 75.45118,51.98123 75.45118,48.28383" id="Fill-26" fill="#000000"></path>
                    <polygon id="Fill-27" fill="#000000" points="107.10329 54.39035 106.41099 54.39035 96.82239 45.66065 96.82239 54.39035 93.93629 54.39035 93.93629 40.07885 94.65169 40.07885 104.24099 48.61815 104.24099 40.10195 107.10329 40.10195"></polygon>
                    <path d="M116.02353,42.60725 L116.02353,51.86195 L118.57573,51.86195 C121.34283,51.86195 123.39383,50.24005 123.39383,47.23425 C123.39383,44.22845 121.34283,42.60725 118.57573,42.60725 L116.02353,42.60725 Z M118.76613,54.39035 L113.13673,54.39035 L113.13673,40.07885 L118.76613,40.07885 C123.46523,40.07885 126.37513,43.03635 126.37513,47.23425 C126.37513,51.43285 123.46523,54.39035 118.76613,54.39035 L118.76613,54.39035 Z" id="Fill-28" fill="#000000"></path>
                    <path d="M136.27327,45.30232 L136.08217,45.30232 L133.91147,49.97762 L133.74487,50.28772 L138.61057,50.28772 L138.44397,49.97762 L136.27327,45.30232 Z M135.93937,40.07892 L136.43987,40.07892 L143.81087,54.39042 L140.54257,54.39042 L139.61227,52.43392 L132.76697,52.43392 L131.86047,54.39042 L128.59287,54.39042 L135.93937,40.07892 Z" id="Fill-29" fill="#000000"></path>
                    <polygon id="Fill-30" fill="#000000" points="144.02416 40.07864 156.23706 40.07864 156.23706 42.60704 151.58556 42.60704 151.58556 54.39014 148.69946 54.39014 148.69946 42.60704 144.02416 42.60704"></polygon>
                    <polygon id="Fill-31" fill="#000000" points="160.7914 54.39028 163.6775 54.39028 163.6775 40.07878 160.7914 40.07878"></polygon>
                    <path d="M181.30259,47.23418 C181.30259,44.51538 179.37059,42.53578 176.67559,42.53578 C174.00369,42.53578 172.09549,44.51538 172.09549,47.23418 C172.09549,49.95368 174.00369,51.93328 176.67559,51.93328 C179.37059,51.93328 181.30259,49.95368 181.30259,47.23418 M169.11419,47.23418 C169.11419,43.10768 172.00029,39.76798 176.67559,39.76798 C181.37469,39.76798 184.26079,43.10768 184.26079,47.23418 C184.26079,51.36068 181.37469,54.70038 176.67559,54.70038 C172.00029,54.70038 169.11419,51.36068 169.11419,47.23418" id="Fill-32" fill="#000000"></path>
                    <polygon id="Fill-33" fill="#000000" points="202.86518 54.39035 202.17358 54.39035 192.58428 45.66065 192.58428 54.39035 189.69818 54.39035 189.69818 40.07885 190.41428 40.07885 200.00288 48.61815 200.00288 40.10195 202.86518 40.10195"></polygon>
                </g>
            </g>
        </g>
    </g>
</svg>